<svg xmlns="http://www.w3.org/2000/svg" xmlns:xlink="http://www.w3.org/1999/xlink" version="1.1" x="0px" y="0px" viewBox="0 0 72 90" style="enable-background:new 0 0 72 72;" xml:space="preserve"><g><g><g><path d="M67,65.2206879h-0.5400391V41.3505745h0.4599609c0.5500488,0,1-0.4501953,1-1s-0.4499512-1-1-1     c-0.133873,0-1.9525375,0-1.8498535,0V30.130846h0.3898926c0.5500488,0,1-0.4501953,1-1c0-0.5605469-0.4499512-1-1-1     c-0.133873,0-1.7826157,0-1.6799316,0v-6.8901367c0.1006889-0.0008392,2.5553055-0.0213146,2.3999023-0.0200195     c0.5600586,0,1-0.4501953,1-1c0-0.5600586-0.4199219-1-1.0100098-1h-0.4899902     c-0.4399414-2.5898438-2.1999512-4.7001944-4.5400391-5.6503897c-0.0297852-0.7294922-0.329834-1.4199219-0.8498535-1.9296875     c-0.2995605-0.2993164-0.6491699-0.5087891-1.0383301-0.6391602l-0.0136719-2.0952148     c-0.003418-0.5517578-0.4741211-0.9873052-1.0063477-0.9931645c-0.5522461,0.0039063-0.9970703,0.454102-0.9936523,1.0068364     l0.0136719,2.0703125c-0.0004883,0-0.0012207,0.0004883-0.001709,0.0004883     c-1.0700684,0.409668-1.8400879,1.4399414-1.869873,2.6401367c-2.3300781,0.9794922-4.0400391,3.1098623-4.4401855,5.6997061     h-0.5c-0.5500488,0-1,0.4501953-0.9899902,1c0,0.550293,0.4501953,1,1,1     c0.1006889-0.000843,2.5455437-0.0213203,2.3901367-0.0200195v3.7900391H19.0700684v-3.8598633     c0.1006908-0.0008354,2.5668468-0.0213223,2.4099121-0.0200195c0.5500488,0,1-0.4501953,0.9899902-1c0-0.550293-0.4499512-1-1-1     h-0.5c-0.4399414-2.5800781-2.1799316-4.6699209-4.5300293-5.6298819     c-0.0200195-0.7402344-0.329834-1.4301758-0.8598633-1.9501953c-0.2983398-0.2978516-0.6462402-0.5166016-1.0334473-0.6469727     L14.532959,8.9062376c-0.003418-0.5517578-0.421875-0.9873052-1.0063477-0.9931645     c-0.5522461,0.0039063-0.9970703,0.454102-0.9936523,1.0068364l0.0136719,2.0786133     c-0.0019531,0.0009766-0.0043945,0.0009766-0.0065918,0.0019531c-1.0700684,0.3999023-1.8300781,1.4199219-1.8601074,2.6201172     c-2.3300781,0.9897461-4.0498047,3.1098623-4.4499512,5.70996h-0.5c-0.5500488,0-0.9899902,0.4501953-0.9899902,1     c0,0.550293,0.4499512,1,1,1H5.75c0.1006904-0.0008469,2.535532-0.0213261,2.380127-0.0200195v6.8203125     c-0.1083002,0-1.7728515,0-1.670166,0c-0.5500488,0-1,0.4394531-1,1c0,0.5498047,0.4499512,1,1,1h0.3898926v9.2197285     c-0.1204662,0-1.952539,0-1.8498535,0c-0.5600586,0-1,0.4501953-1,1s0.4399414,1,1,1h0.4599609v23.8701134H5     c-0.5600586,0-1,0.449707-1,1c0,0.5498047,0.4399414,1,1,1c77.7218933,0.0010147,59.0469971,0.0018234,62,0     c0.5500488,0,1-0.4501953,1-1C68,65.6703949,67.5500488,65.2206879,67,65.2206879z M29.2299805,50.2607307     c-2.880127,0-5.2199707,2.3398438-5.2199707,5.2197266v9.7402306H21.75V41.3505745h0.4699707c0.5500488,0,1-0.4501953,1-1     s-0.4499512-1-1-1c-0.1745415,0-1.9625492,0-1.8598633,0c0-0.3366127,0-2.5634232,0-2.4399414h31.1999512     c0,0.2448006,0,2.5634193,0,2.4399414c-0.1204643,0-1.9627914,0-1.8601074,0c-0.5498047,0-1,0.4501953-1,1s0.4501953,1,1,1     h0.4699707v23.8701134h-2.5898438v-9.7402306c0-2.9159508-2.3645096-5.2099609-5.1999512-5.2099609     c-2.8901367,0-5.2299805,2.3300781-5.2299805,5.2099609v9.7402306h-2.7102051v-9.7402306     C34.4399414,52.6069069,32.1021309,50.2607307,29.2299805,50.2607307z M10.130127,21.3007679     c0.1000338-0.0004368,7.4036789-0.0322952,6.9399414-0.0302734c0,0.3725166,0,7.2990913,0,6.8603516     c-2.3836069,0-4.5061426,0-6.9399414,0V21.3007679z M52.8400879,27.1005726v1.0302734c-0.1082993,0-1.77285,0-1.670166,0     c-0.5598145,0-1,0.4394531-1,1c0,0.5498047,0.4401855,1,1,1h0.3901367v2.3295918l-5.9799805-5.3598652H52.8400879z      M61.7800293,21.2704945v6.8603516c-1.5824013,0-4.5599136,0-6.9399414,0c0-3.8245716,0-3.019289,0-6.8300781     C54.9401207,21.3003311,62.2437668,21.2684727,61.7800293,21.2704945z M64.4599609,65.2206879     c-3.7575417,0-9.7125969,0-12.2900391,0V41.3505745c2.8192673,0,9.2247047,0,12.2900391,0V65.2206879z M63.0700684,39.3505745     c-1.9085999,0-6.4079132,0-9.5100098,0c0-0.1464996,0-9.319809,0-9.2197285c3.0397263,0,6.418251,0,9.5100098,0V39.3505745z      M42.2900391,27.1005726l-6.9401855,4.6298828l-6.9399414-4.6298828H42.2900391z M20.3601074,31.3603382V30.130846H20.75     c0.5500488,0,1-0.4501953,1-1c0-0.5605469-0.4499512-1-1-1c-0.1338768,0-1.7826176,0-1.6799316,0v-1.0302734h6.0400391     L20.3601074,31.3603382z M8.8498535,30.130846c1.7299252,0,7.436018,0,9.5102539,0c0,0.3388443,0,9.6322994,0,9.2197285     c-0.2623272,0-10.157424,0-9.5102539,0C8.8498535,39.1229515,8.8498535,29.6832905,8.8498535,30.130846z M7.4599609,41.3505745     c0.3222928,0,12.7725906,0,12.2900391,0v23.8701134c-3.0830956,0-9.2240381,0-12.2900391,0V41.3505745z"/></g><g><path d="M29.6398926,39.4106331h-3.7998047c-0.6101074,0-1.1000977,0.4897461-1.1000977,1.1098633v4.7900391     c0,0.6098633,0.4899902,1.1098633,1.1000977,1.1098633h3.7998047c0.6101074,0,1.1101074-0.5,1.1101074-1.1098633v-4.7900391     C30.75,39.9003792,30.25,39.4106331,29.6398926,39.4106331z"/></g><g><path d="M38.9499512,45.3105354v-4.7900391c0-0.6201172-0.4899902-1.1098633-1.1098633-1.1098633h-3.7900391     c-0.6101074,0-1.1101074,0.4897461-1.1101074,1.1098633v4.7900391c0,0.6098633,0.5,1.1098633,1.1101074,1.1098633h3.7900391     C38.4599609,46.4203987,38.9499512,45.9203987,38.9499512,45.3105354z"/></g><g><path d="M42.2600098,46.4203987h3.7900391c0.6098633,0,1.1098633-0.5,1.1098633-1.1098633v-4.7900391     c0-0.6201172-0.5-1.1098633-1.1098633-1.1098633h-3.7900391c-0.6201172,0-1.1098633,0.4897461-1.1098633,1.1098633v4.7900391     C41.1501465,45.9203987,41.6398926,46.4203987,42.2600098,46.4203987z"/></g><g><path d="M15.6699219,44.0507698H11.880127c-0.6101074,0-1.1101074,0.5-1.1101074,1.1098633v4.7998047     c0,0.6098633,0.5,1.1098633,1.1101074,1.1098633h3.7897949c0.6201172,0,1.1101074-0.5,1.1101074-1.1098633v-4.7998047     C16.7800293,44.5507698,16.2900391,44.0507698,15.6699219,44.0507698z"/></g><g><path d="M15.3400879,32.120594c-3.7967653,0-3.5797749-0.0202408-3.7800293,0.0600586     c-0.3601074,0.1298828-0.6201172,0.4697266-0.6201172,0.8798828v0.0200195c0,0.0502739-0.0060062,3.3722649,0.0100098,3.4199219     c0.0300293,0.4702148,0.4399414,0.8500977,0.9301758,0.8500977h3.4599609c0.5368624,0,0.9199219-0.4654961,0.9199219-0.8500977     c0.0155907-0.0463943,0.0100098-3.488884,0.0100098-3.4399414C16.2700195,32.5405159,15.8498535,32.120594,15.3400879,32.120594z     "/></g><g><path d="M15.5300293,26.0004749v-2.6000977c0-0.3198242-0.2600098-0.5800781-0.5800781-0.5800781h-2.6799316     c-0.3200684,0-0.5800781,0.2602539-0.5800781,0.5800781v2.6000977c0,0.3198242,0.2600098,0.5800781,0.5800781,0.5800781     h2.6799316C15.2700195,26.5805531,15.5300293,26.3202991,15.5300293,26.0004749z"/></g><g><path d="M15.6699219,55.1406136H11.880127c-0.6101074,0-1.1101074,0.4902344-1.1101074,1.1098633v4.7900391     c0,0.6098633,0.5,1.1098633,1.1101074,1.1098633h3.7897949c0.6201172,0,1.1101074-0.5,1.1101074-1.1098633v-4.7900391     C16.7800293,55.6308479,16.2900391,55.1406136,15.6699219,55.1406136z"/></g><g><path d="M60.2099609,44.0507698h-3.7900391c-0.619873,0-1.1098633,0.5-1.1098633,1.1098633v4.7998047     c0,0.6098633,0.4899902,1.1098633,1.1098633,1.1098633h3.7900391c0.6101074,0,1.1101074-0.5,1.1101074-1.1098633v-4.7998047     C61.3200684,44.5507698,60.8200684,44.0507698,60.2099609,44.0507698z"/></g><g><path d="M59.869873,32.120594c-1.150692,0-2.3020096,0-3.4499512,0c-0.5197754,0-0.9399414,0.4199219-0.9399414,0.9399414     c0,0.0508194-0.0061798,3.3917694,0.0100098,3.4399414c0.0300293,0.4702148,0.4399414,0.8500977,0.9299316,0.8500977h3.4499512     c0.4902344,0,0.9001465-0.3798828,0.9301758-0.8500977v-0.0097656c0.0168266-0.0336533,0.0100098-3.4678001,0.0100098-3.4301758     C60.8100586,32.5405159,60.3898926,32.120594,59.869873,32.120594z"/></g><g><path d="M56.8000488,26.5805531h2.6799316c0.3200684,0,0.5800781-0.2602539,0.5800781-0.5800781v-2.6000977     c0-0.3198242-0.2600098-0.5800781-0.5800781-0.5800781h-2.6799316c-0.3200684,0-0.5700684,0.2602539-0.5700684,0.5800781     v2.6000977C56.2299805,26.3202991,56.4799805,26.5805531,56.8000488,26.5805531z"/></g><g><path d="M60.2099609,55.1406136h-3.7900391c-0.619873,0-1.1098633,0.4902344-1.1098633,1.1098633v4.7900391     c0,0.6098633,0.4899902,1.1098633,1.1098633,1.1098633h3.7900391c0.6101074,0,1.1101074-0.5,1.1101074-1.1098633v-4.7900391     C61.3200684,55.6308479,60.8200684,55.1406136,60.2099609,55.1406136z"/></g><g><path d="M28.1520996,11.6830931c0.0976563,0.0175781,0.9633789,0.2050781,1.3164063,1.4160156     c0.1105137,0.3740482,0.4941196,0.7137871,0.9519043,0.71875c0.0026855,0,0.0048828,0.0009766,0.0075684,0.0009766     c0,0,0,0,0.0004883,0c0,0,0,0,0.0004883,0c0.0024414,0,0.0048828-0.0009766,0.0073242-0.0009766     c1.2585487-0.0136805,0.8307762-1.8727274,2.2661133-2.1342773c0.5380859-0.081543,0.9135742-0.5795898,0.8413086-1.121582     c-0.0732422-0.5473633-0.581543-0.9331055-1.1235352-0.8583984c-0.517334,0.0693359-1.3208008,0.3823242-1.9916992,1.1040039     c-0.6708984-0.7216797-1.4746094-1.034668-1.9916992-1.1040039c-0.5332031-0.0712891-1.0249023,0.3017578-1.1088867,0.8388672     C27.2443848,11.0795774,27.6164551,11.5873899,28.1520996,11.6830931z"/></g><g><path d="M36.2019043,6.7651238c0.1064453,0.0205078,0.6513672,0.1655273,0.8901367,0.984375     c0.1107292,0.3747697,0.4946289,0.7137933,0.9519043,0.7187505c0.0026855,0,0.0048828,0.0009766,0.0075684,0.0009766     c0,0,0,0,0.0004883,0c0,0,0,0,0.0004883,0c0.0024414,0,0.0048828-0.0009766,0.0073242-0.0009766     c0.3833542-0.0041676,0.8191795-0.2687073,0.9521484-0.7187505c0.2358398-0.8095703,0.7709961-0.9599609,0.8867188-0.9833984     c0.5356445-0.0839844,0.9086914-0.5810547,0.8364258-1.1210938C40.661377,5.0976434,40.157959,4.716784,39.6115723,4.7866082     c-0.4069824,0.0541992-1.0185547,0.2915039-1.5595703,0.8022461c-0.5410156-0.5107422-1.1523438-0.7480469-1.5585938-0.8022461     c-0.5400391-0.0693359-1.0161133,0.2988281-1.1035156,0.8320313C35.3024902,6.1528192,35.6711426,6.6616082,36.2019043,6.7651238     z"/></g><g><path d="M38.592041,13.8388548c-0.6708984-0.7216797-1.4746094-1.034668-1.9916992-1.1040039     c-0.5327148-0.0703125-1.0249023,0.3017578-1.1088867,0.8388672c-0.0834961,0.5371094,0.2885742,1.0449219,0.8242188,1.140625     c0.0976563,0.0175781,0.9633789,0.2050781,1.3164063,1.4160147c0.1104736,0.3739071,0.4942131,0.713789,0.9519043,0.71875     c0.0026855,0,0.0048828,0.0009766,0.0075684,0.0009766c0,0,0,0,0.0004883,0c0,0,0,0,0.0004883,0     c0.0024414,0,0.0048828-0.0009766,0.0073242-0.0009766c0.4565239-0.004961,0.8345604-0.3207588,0.9521484-0.71875     c0.3500977-1.2011709,1.2041016-1.3955069,1.3139648-1.4155264c0.5380859-0.081543,0.9135742-0.5795898,0.8413086-1.121582     c-0.0732422-0.5473633-0.5805664-0.9306641-1.1235352-0.8583984     C40.0664063,12.8041868,39.2629395,13.1171751,38.592041,13.8388548z"/></g></g></g></svg>